<svg xmlns="http://www.w3.org/2000/svg" width="522" height="136" viewBox="0 0 522 136"><g fill-rule="evenodd"><g transform="translate(191.984 21.456)"><polygon fill-rule="nonzero" points="0 90.112 13.824 90.112 13.44 6.912 39.424 90.112 60.544 90.112 86.4 6.784 86.016 90.112 99.84 90.112 99.84 0 75.264 0 50.56 80.896 25.344 0 0 0"/><path fill-rule="nonzero" d="M146.48 91.648C164.016 91.648 175.152 83.072 177.456 70.912L163.504 70.912C161.712 75.904 156.72 79.232 146.48 79.232 135.088 79.232 127.28 73.472 126.384 62.72L178.864 62.72C181.04 41.216 169.264 23.808 146.48 23.808 126.64 23.808 113.072 37.12 113.072 58.624 113.072 78.592 124.848 91.648 146.48 91.648ZM146.096 36.224C157.104 36.224 163.76 41.472 165.168 51.84L126.384 51.84C127.664 41.088 135.6 36.224 146.096 36.224ZM190.688 90.112 204 90.112 204 56.704C204 46.208 209.504 38.784 220.768 38.784L233.952 38.784 233.952 25.344 224.992 25.344C214.496 25.344 207.456 30.848 204 38.144L204 25.344 190.688 25.344 190.688 90.112ZM265.872 91.648C275.472 91.648 283.792 87.808 288.528 80.768L288.528 114.176 301.84 114.176 301.84 25.344 288.528 25.344 288.528 33.792C284.688 28.288 277.904 23.808 266.512 23.808 249.616 23.808 235.536 34.944 235.536 57.344 235.536 80.64 249.872 91.648 265.872 91.648ZM268.688 79.232C257.552 79.232 249.616 71.936 249.616 57.728 249.616 44.544 256.912 36.224 268.944 36.224 279.184 36.224 288.784 42.496 288.784 57.6 288.784 73.6 278.672 79.232 268.688 79.232Z"/><polygon fill-rule="nonzero" points="316.48 90.112 329.792 90.112 329.792 0 316.48 0"/></g><path d="M128,0 L128,128 L-4.26325641e-14,128 L-4.26325641e-14,0 L128,0 Z M49.0083432,56.0007898 L16,56 L16,112 L72,112 L72.0002077,78.9919136 C60.7555139,76.0978104 51.9027987,67.2453421 49.0083432,56.0007898 Z M80,16 C62.326888,16 48,30.326888 48,48 C48,50.762681 48.3500961,53.4435926 49.0083432,56.0007898 L72,56 L72.0002077,78.9919136 C74.5571045,79.6499949 77.2376782,80 80,80 C97.673112,80 112,65.673112 112,48 C112,30.326888 97.673112,16 80,16 Z"/></g></svg>