<svg xmlns="http://www.w3.org/2000/svg" width="541" height="133" viewBox="0 0 541 133"><g fill="#FFF" fill-rule="evenodd" transform="translate(0 .456)"><path fill-rule="nonzero" d="M44.8 94.208C55.424 94.208 68.352 90.24 74.624 79.616L74.624 92.16 87.04 92.16 87.04 45.184 40.448 45.184 40.448 57.344 74.752 57.344C73.088 73.472 61.184 81.408 46.336 81.408 26.88 81.408 14.336 68.736 14.336 47.616 14.336 25.6 26.624 12.8 44.672 12.8 57.728 12.8 69.888 19.712 72.704 30.592L87.04 30.592C84.608 13.824 68.736 0 45.952 0 18.944 0 2.84217094e-14 18.432 2.84217094e-14 47.488 2.84217094e-14 74.24 17.664 94.208 44.8 94.208ZM103.344 92.16 116.656 92.16 116.656 58.752C116.656 48.256 122.16 40.832 133.424 40.832L146.608 40.832 146.608 27.392 137.648 27.392C127.152 27.392 120.112 32.896 116.656 40.192L116.656 27.392 103.344 27.392 103.344 92.16ZM181.6 93.696C199.136 93.696 210.272 85.12 212.576 72.96L198.624 72.96C196.832 77.952 191.84 81.28 181.6 81.28 170.208 81.28 162.4 75.52 161.504 64.768L213.984 64.768C216.16 43.264 204.384 25.856 181.6 25.856 161.76 25.856 148.192 39.168 148.192 60.672 148.192 80.64 159.968 93.696 181.6 93.696ZM181.216 38.272C192.224 38.272 198.88 43.52 200.288 53.888L161.504 53.888C162.784 43.136 170.72 38.272 181.216 38.272ZM225.808 116.224 239.12 116.224 239.12 83.84C244.112 90.24 252.432 93.696 261.776 93.696 277.904 93.696 292.112 82.688 292.112 59.392 292.112 36.992 278.544 25.856 261.904 25.856 250.128 25.856 242.96 30.592 239.12 36.352L239.12 27.392 225.808 27.392 225.808 116.224ZM258.96 81.28C248.976 81.28 238.864 75.392 238.864 59.264 238.864 44.288 248.464 38.272 258.704 38.272 270.736 38.272 278.032 46.592 278.032 59.776 278.032 74.112 270.096 81.28 258.96 81.28ZM303.68 92.16 316.992 92.16 316.992 55.936C316.992 43.904 323.648 37.76 334.016 37.76 344.64 37.76 350.272 43.648 350.272 57.344L350.272 92.16 363.584 92.16 363.584 52.992C363.584 33.536 351.168 25.856 337.856 25.856 329.024 25.856 321.472 29.312 316.992 35.584L316.992 2.048 303.68 2.048 303.68 92.16Z" transform="translate(176 16.908)"/><path d="M128,0 L128,128 L3.55271368e-15,128 L3.55271368e-15,0 L128,0 Z M112,16 L16,16 L16,23.999 L16,104 L16,112 L24,112 L104,112 L112,112 L112,40 L104,40 L104,104 L24,104 L24,23.999 L112,24 L112,16 Z M40,40 L32,40 L32,96 L40,96 L96,96 L96,88 L96,48 L56,48 L48,48 L48,56 L48,80 L72,80 L80,80 L80,56 L88,56 L88,88 L40,88 L40,40 Z M56,56 L72,56 L72,71.999 L56,71.999 L56,56 Z M112,32 L32,32 L32,40 L112,40 L112,32 Z"/></g></svg>